<?xml version="1.0" standalone="no"?>
<!DOCTYPE svg PUBLIC "-//W3C//DTD SVG 20010904//EN"
 "http://www.w3.org/TR/2001/REC-SVG-20010904/DTD/svg10.dtd">
<svg version="1.0" xmlns="http://www.w3.org/2000/svg"
 width="1024.000000pt" height="1024.000000pt" viewBox="0 0 1024.000000 1024.000000"
 preserveAspectRatio="xMidYMid meet">
<metadata>
Created by potrace 1.14, written by Peter Selinger 2001-2017
</metadata>
<g transform="translate(0.000000,1024.000000) scale(0.100000,-0.100000)"
fill="#000000" stroke="none">
<path d="M3847 10134 c-2 -2 -38 -7 -80 -10 -41 -3 -84 -7 -94 -9 -10 -2 -26
-4 -37 -4 -22 -1 -20 -24 14 -231 21 -126 29 -175 34 -220 3 -30 24 -156 37
-223 5 -27 6 -55 1 -63 -4 -8 -492 -499 -1084 -1092 -601 -602 -1074 -1084
-1073 -1092 1 -8 5 -42 9 -75 12 -116 16 -150 22 -195 7 -48 9 -71 18 -165 3
-33 8 -71 11 -85 3 -14 7 -55 10 -93 2 -37 6 -71 9 -75 3 -5 6 -33 7 -63 2
-45 7 -58 32 -81 16 -16 35 -28 43 -28 8 0 14 -4 14 -8 0 -4 12 -13 28 -20 15
-6 45 -23 67 -36 22 -13 51 -31 65 -39 14 -7 66 -38 115 -67 112 -66 148 -86
205 -118 25 -13 52 -31 61 -38 8 -8 19 -14 22 -14 4 0 24 -11 45 -23 20 -13
58 -36 84 -50 l47 -26 32 66 c69 144 164 256 344 408 33 27 62 53 63 58 2 4 8
5 13 1 5 -3 9 0 9 5 0 6 15 21 34 33 35 24 154 111 171 126 6 5 15 11 20 13 6
2 56 34 112 72 56 37 107 67 112 67 5 0 11 3 13 8 4 10 144 92 156 92 6 0 12
3 14 8 9 20 557 293 658 327 9 3 45 18 85 35 73 31 227 81 233 76 3 -4 -2 -14
-11 -24 -20 -19 -104 -128 -127 -162 -8 -12 -20 -28 -25 -34 -24 -26 -85 -117
-85 -126 0 -6 -4 -10 -9 -10 -5 0 -12 -8 -15 -17 -3 -10 -17 -31 -31 -47 -14
-16 -25 -35 -25 -42 0 -7 -4 -14 -8 -16 -7 -3 -78 -115 -125 -198 -10 -19 -36
-64 -57 -100 -73 -127 -260 -518 -260 -544 0 -7 -4 -16 -9 -21 -16 -18 -154
-401 -166 -465 -2 -8 -4 -15 -5 -15 -2 0 -7 -20 -12 -45 -2 -8 -6 -19 -9 -25
-6 -10 -57 -200 -65 -240 -5 -26 -13 -60 -20 -88 -3 -12 -7 -29 -8 -37 -1 -8
-5 -24 -9 -35 -3 -11 -9 -36 -12 -55 -3 -19 -8 -42 -10 -50 -2 -8 -6 -37 -9
-63 -3 -27 -8 -52 -10 -56 -3 -4 -8 -30 -11 -57 -4 -27 -8 -60 -11 -74 -9 -55
-26 -173 -29 -215 -1 -16 -6 -61 -9 -100 -30 -304 -35 -741 -11 -995 8 -87 15
-153 19 -183 3 -18 0 -27 -9 -27 -18 0 -74 -58 -87 -89 -40 -101 14 -249 95
-263 12 -2 120 -3 240 -3 205 1 251 -4 191 -19 -24 -6 -134 -55 -174 -76 -8
-5 -49 -26 -90 -47 -41 -21 -77 -40 -80 -43 -3 -3 -21 -14 -40 -24 -31 -17
-250 -158 -275 -178 -5 -4 -23 -19 -39 -33 -16 -14 -32 -25 -35 -25 -3 0 -20
-12 -36 -28 -17 -15 -61 -54 -100 -87 -120 -104 -264 -255 -357 -375 -23 -30
-45 -57 -49 -60 -7 -6 -139 -199 -139 -204 0 -2 -15 -26 -32 -53 -31 -46 -142
-262 -170 -331 -7 -17 -16 -32 -20 -32 -5 0 -7 -3 -6 -7 2 -9 -18 -73 -37
-118 -15 -33 -45 -127 -50 -153 -2 -9 -4 -18 -5 -19 -2 -2 -3 -6 -4 -10 -1 -5
-7 -26 -14 -47 -6 -22 -9 -43 -6 -48 3 -4 1 -8 -3 -8 -5 0 -10 -8 -11 -17 -4
-35 -8 -53 -15 -59 -4 -4 -62 -8 -130 -9 -105 -2 -128 -5 -166 -24 -93 -48
-141 -119 -146 -219 -3 -65 29 -135 82 -183 63 -54 94 -62 249 -64 77 -1 146
-5 152 -9 7 -4 12 -4 12 1 0 4 30 7 68 5 76 -3 88 -3 270 1 72 1 132 -2 132
-7 0 -5 6 -4 12 1 7 5 40 7 73 6 73 -3 105 -3 260 0 66 1 126 -2 133 -7 7 -5
12 -5 12 0 0 5 30 8 68 6 76 -3 88 -3 270 1 72 1 132 -2 132 -7 0 -5 6 -4 13
1 6 5 39 7 72 6 73 -3 105 -3 260 0 66 1 126 -2 133 -7 7 -5 12 -5 12 0 0 5
30 8 68 6 76 -3 88 -3 270 1 72 1 132 -2 132 -7 0 -5 6 -4 13 1 6 5 39 7 72 6
73 -3 105 -3 260 0 66 1 126 -2 133 -7 7 -5 12 -5 12 0 0 5 30 8 68 6 76 -3
88 -3 270 1 72 1 132 -2 132 -7 0 -5 6 -4 13 1 6 5 39 7 72 6 73 -3 105 -3
260 0 66 1 126 -2 133 -7 7 -5 12 -5 12 0 0 5 30 8 68 6 76 -3 88 -3 270 1 72
1 132 -2 132 -7 0 -5 6 -4 13 1 6 5 39 7 72 6 73 -3 105 -3 260 0 66 1 126 -2
133 -7 7 -5 12 -5 12 0 0 5 30 8 68 6 76 -3 88 -3 270 1 72 1 132 -2 132 -7 0
-5 6 -4 13 1 6 5 39 7 72 6 73 -3 105 -3 260 0 66 1 126 -2 133 -7 6 -4 12 -5
12 0 0 5 25 9 55 9 30 0 55 -4 55 -8 0 -5 5 -5 11 -1 16 10 109 11 109 1 0 -5
5 -5 12 -1 7 4 57 8 112 9 122 2 169 15 224 64 73 65 104 177 71 256 -7 17
-12 33 -11 36 1 4 -17 26 -40 49 -65 66 -112 82 -252 86 -122 2 -138 7 -143
46 -3 25 -42 174 -51 198 -3 8 -7 20 -7 25 -1 6 -7 23 -13 38 -7 16 -12 30
-12 33 0 13 -78 200 -118 283 -180 373 -442 709 -767 981 -50 41 -91 78 -93
83 -2 4 -8 7 -13 7 -8 0 -71 45 -122 86 -9 8 -22 14 -27 14 -6 0 -10 5 -10 10
0 6 -5 10 -10 10 -6 0 -33 16 -60 35 -28 19 -50 32 -50 28 0 -5 -4 -3 -8 3
-17 25 -390 214 -422 214 -5 0 -11 4 -14 8 -2 4 101 8 229 8 264 0 267 0 312
80 28 49 26 155 -3 205 -35 59 -65 73 -154 74 -74 0 -80 2 -80 21 0 19 33 64
48 64 4 0 20 11 36 25 16 14 32 25 36 25 10 0 134 100 138 111 2 5 8 9 14 9
12 0 175 164 233 233 22 27 45 54 50 60 12 14 96 131 142 197 35 51 55 85 128
221 90 167 172 368 235 579 18 58 34 112 37 120 3 8 7 26 9 39 2 13 6 31 10
40 4 9 8 25 9 36 2 11 8 43 15 70 12 52 13 57 24 115 3 19 8 46 11 60 3 13 7
40 10 60 3 20 7 45 9 55 2 11 7 48 11 83 4 35 11 76 15 93 5 18 5 29 -1 29 -6
0 -7 5 -3 11 7 12 8 17 21 169 10 124 10 777 0 900 -5 52 -10 120 -12 150 -7
85 -13 151 -19 195 -3 22 -8 67 -11 100 -3 33 -7 71 -10 85 -6 30 -13 81 -20
140 -3 25 -10 70 -15 100 -6 30 -12 67 -15 83 -3 15 -7 39 -10 55 -3 15 -8 43
-11 62 -3 19 -10 46 -14 60 -5 14 -11 39 -14 55 -2 17 -12 57 -21 90 -9 33
-18 65 -19 70 -3 13 -37 126 -44 145 -3 8 -6 20 -7 25 -7 27 -98 262 -125 322
-53 114 -141 286 -166 323 -13 19 -24 40 -24 46 0 7 -3 14 -7 16 -5 2 -30 37
-58 78 -56 85 -105 152 -120 162 -6 5 -6 8 -1 8 6 0 3 6 -5 13 -9 6 -33 35
-55 62 -54 69 -262 280 -331 337 -32 25 -67 55 -78 65 -12 10 -36 29 -55 43
-19 13 -39 28 -45 32 -38 30 -106 78 -110 78 -2 0 -37 21 -77 47 -194 125
-553 288 -768 349 -25 7 -79 22 -120 34 -41 12 -84 24 -95 26 -11 2 -49 11
-85 20 -36 9 -76 18 -90 20 -14 2 -45 9 -70 14 -25 5 -61 12 -80 14 -19 3 -44
8 -56 10 -11 2 -45 7 -75 10 -30 3 -65 8 -79 10 -14 3 -56 8 -95 11 -38 4 -83
9 -100 12 -39 6 -712 12 -718 7z"/>
</g>
</svg>
